<?xml version="1.0" encoding="utf-8"?>
<!-- Generator: Adobe Illustrator 21.1.0, SVG Export Plug-In . SVG Version: 6.00 Build 0)  -->
<svg version="1.1" id="Layer_1" xmlns="http://www.w3.org/2000/svg" xmlns:xlink="http://www.w3.org/1999/xlink" x="0px" y="0px"
	 viewBox="0 0 564 400" style="enable-background:new 0 0 564 400;" xml:space="preserve">
<style type="text/css">
	.st0{fill:#FFFFFF;}
	.st1{fill:#FF4800;}
</style>
<path class="st0" d="M258,216.5c-4.2-4.5-6.3-10.3-6.3-17.4c0-7.1,2.1-12.9,6.3-17.5c4.2-4.6,9.3-6.8,15.3-6.8
	c6,0,10.7,2.2,13.9,6.7v-6.2h14.5v47.2c0,6.6-1.8,12.2-5.4,16.6c-1.8,2.3-4.3,4-7.4,5.3c-3.1,1.2-6.8,1.9-10.9,1.9
	c-7.3,0-13-1.5-17.3-4.4c-4.3-2.9-6.7-7.5-7.2-13.5h14.3c1.4,3.6,4.8,5.4,10.2,5.4c2.7,0,4.9-0.9,6.6-2.7c1.8-1.8,2.6-4.6,2.6-8.5
	v-6.6c-3.5,5-8.2,7.5-14.1,7.5C267.3,223.3,262.2,221,258,216.5z M284.1,207.6c2.1-2,3.1-4.9,3.1-8.7c0-3.7-1-6.6-3.1-8.6
	c-2.1-2-4.5-3-7.2-3c-2.7,0-5.1,1-7.2,3.1c-2.1,2-3.1,4.9-3.1,8.7c0,3.7,1,6.6,3.1,8.6c2.1,2,4.5,3,7.2,3
	C279.6,210.7,282,209.7,284.1,207.6z"/>
<path class="st0" d="M342,175.3h14.5v47.4H342v-7c-3,5-7.8,7.5-14.4,7.5c-5.4,0-9.8-1.8-13.2-5.4c-3.4-3.6-5.1-8.6-5.1-14.8v-27.7
	h14.4V201c0,3.1,0.8,5.4,2.4,7.1c1.6,1.7,3.8,2.5,6.7,2.5s5.1-0.8,6.7-2.5c1.6-1.7,2.4-4,2.4-7.1V175.3z"/>
<path class="st0" d="M377.5,169.9c-1.6,1.6-3.7,2.5-6,2.5s-4.4-0.8-6-2.5c-1.6-1.6-2.5-3.7-2.5-6.1c0-2.4,0.8-4.4,2.5-6.1
	c1.6-1.6,3.7-2.5,6-2.5s4.4,0.8,6,2.5c1.6,1.6,2.5,3.7,2.5,6.1C380,166.2,379.1,168.3,377.5,169.9z M364.2,222.7v-47.4h14.5v47.4
	H364.2z"/>
<path class="st0" d="M390.9,216.5c-4.2-4.5-6.3-10.3-6.3-17.4c0-7.1,2.1-12.9,6.3-17.5c4.2-4.6,9.3-6.8,15.3-6.8
	c6,0,10.7,2.2,13.9,6.7v-21.7h14.5v62.9h-14.5v-6.9c-3.5,5-8.2,7.5-14.1,7.5C400.2,223.3,395.1,221,390.9,216.5z M417,207.6
	c2.1-2,3.1-4.9,3.1-8.7c0-3.7-1-6.6-3.1-8.6s-4.5-3-7.2-3c-2.7,0-5.1,1-7.2,3.1s-3.1,4.9-3.1,8.7c0,3.7,1,6.6,3.1,8.6
	c2.1,2,4.5,3,7.2,3C412.5,210.7,414.9,209.7,417,207.6z"/>
<path class="st0" d="M464.2,223.3c-6.9,0-12.6-2.2-17-6.7c-4.4-4.4-6.6-10.4-6.6-17.7c0-7.4,2.2-13.2,6.6-17.6
	c4.4-4.4,10.1-6.5,17-6.5c7,0,12.8,2.2,17.3,6.5c4.6,4.3,6.9,10.3,6.9,17.9c0,1.6-0.1,3.2-0.3,4.6h-32.6c0.3,2.1,1.2,3.8,2.8,5.1
	c1.6,1.3,3.3,2,5.1,2c1.8,0,3.2-0.2,4.1-0.6c0.9-0.4,1.6-0.7,2-1.1c0.4-0.4,1-1,1.7-1.8h15.7c-1.4,4.8-4.1,8.6-8.2,11.5
	C474.7,221.8,469.8,223.3,464.2,223.3z M470.4,189.2c-1.7-1.4-3.7-2.1-6-2.1c-2.3,0-4.3,0.7-5.9,2.1c-1.6,1.4-2.6,3.2-3,5.4h17.8
	C473.1,192.4,472.1,190.6,470.4,189.2z"/>
<path class="st1" d="M523,223.2l17.3-24.2L523,174.8h15l17.3,24.2L538,223.2H523z"/>
<polygon class="st1" points="504.5,163 489.1,235.9 503.1,235.9 518.5,163 "/>
<path class="st0" d="M129.1,181.5c-3.2-4.5-7.9-6.7-13.9-6.7s-11.1,2.3-15.3,6.8c-4.2,4.6-6.3,10.4-6.3,17.5s2.1,12.9,6.3,17.4
	c4.2,4.5,9.2,6.8,15.1,6.8c5.9,0,10.6-2.5,14.1-7.5v6.9h14.5v-47.4h-14.5V181.5z M126,207.6c-2.1,2-4.5,3.1-7.2,3.1
	c-2.7,0-5.1-1-7.2-3c-2.1-2-3.1-4.9-3.1-8.6c0-3.7,1-6.6,3.1-8.7c2.1-2,4.5-3.1,7.2-3.1c2.7,0,5.1,1,7.2,3c2.1,2,3.1,4.9,3.1,8.6
	C129.1,202.7,128.1,205.6,126,207.6z"/>
<path class="st0" d="M185.1,181.5c-3.2-4.5-7.9-6.7-13.9-6.7c-6,0-11.1,2.3-15.3,6.8c-4.2,4.6-6.3,10.4-6.3,17.5s2.1,12.9,6.3,17.4
	c4.2,4.5,9.2,6.8,15.1,6.8c5.9,0,10.6-2.5,14.1-7.5v6.6c0,3.9-0.9,6.7-2.6,8.5c-1.8,1.8-4,2.7-6.6,2.7c-5.4,0-8.8-1.8-10.2-5.4
	h-14.3c0.6,6.1,3,10.6,7.2,13.5c4.3,2.9,10,4.4,17.3,4.4c4.1,0,7.8-0.6,10.9-1.9c3.1-1.2,5.6-3,7.4-5.3c3.6-4.4,5.4-9.9,5.4-16.6
	v-47.2h-14.5V181.5z M181.9,207.6c-2.1,2-4.5,3.1-7.2,3.1c-2.7,0-5.1-1-7.2-3c-2.1-2-3.1-4.9-3.1-8.6c0-3.7,1-6.6,3.1-8.7
	c2.1-2,4.5-3.1,7.2-3.1c2.7,0,5.1,1,7.2,3c2.1,2,3.1,4.9,3.1,8.6C185.1,202.7,184,205.6,181.9,207.6z"/>
<path class="st0" d="M69.7,174.8c-3.3,0-6.3,0.8-9,2.4c-2.7,1.6-4.9,3.7-6.5,6.4c-1.5-2.8-3.5-5-6.1-6.5c-2.6-1.5-5.6-2.3-9-2.3
	c-6.3,0-10.8,2.4-13.7,7.1v-6.7H11.6v45.3h13.9v-24.6c0-2.9,0.8-5.2,2.3-6.8c1.5-1.6,3.7-2.4,6.4-2.4c2.7,0,4.8,0.8,6.4,2.4
	c1.5,1.6,2.3,3.9,2.3,6.8v24.6h13.8v-24.6c0-2.9,0.8-5.2,2.3-6.8c1.5-1.6,3.7-2.4,6.4-2.4c2.7,0,4.8,0.8,6.4,2.4
	c1.5,1.6,2.3,3.9,2.3,6.8v24.6h13.8v-26.4c0-6.1-1.6-10.8-4.9-14.2C79.6,176.5,75.3,174.8,69.7,174.8z"/>
<path class="st0" d="M246.5,207.4h-10.4c-0.7,0.8-1.2,1.5-1.7,1.8c-0.4,0.4-1.1,0.7-2,1.1c-0.9,0.4-2.3,0.6-4.1,0.6
	c-1.8,0-3.6-0.7-5.1-2c-1.6-1.3-2.5-3-2.8-5.1h25.2c-0.3-1.6-0.4-3.2-0.4-4.9c0-5.4,1.5-10.4,4.1-14.4c-0.8-1.2-1.7-2.3-2.8-3.3
	c-4.6-4.3-10.4-6.5-17.3-6.5c-7,0-12.7,2.2-17,6.5c-4.4,4.4-6.6,10.2-6.6,17.6c0,7.4,2.2,13.3,6.6,17.7c4.4,4.5,10.1,6.7,17,6.7
	c5.6,0,10.5-1.5,14.5-4.4c2.3-1.6,4.1-3.6,5.5-5.8C248,211.4,247.1,209.5,246.5,207.4z M223.4,189.2c1.6-1.4,3.5-2.1,5.9-2.1
	s4.3,0.7,6,2.1c1.7,1.4,2.7,3.2,2.9,5.4h-17.8C220.8,192.4,221.8,190.6,223.4,189.2z"/>
</svg>
