<svg id="Layer_1" data-name="Layer 1" xmlns="http://www.w3.org/2000/svg" viewBox="0 0 197.52 32.46"><defs><style>.cls-1{fill:#ff4800;}.cls-2{fill:#00118c;}</style></defs><title>mege guide logo</title><path d="M89.51,26a8.8,8.8,0,0,1-2.25-6.22,8.86,8.86,0,0,1,2.25-6.24A7.16,7.16,0,0,1,95,11a5.75,5.75,0,0,1,5,2.4V11.23h5.19V28.08A9,9,0,0,1,103.2,34a6.28,6.28,0,0,1-2.66,1.88,10.55,10.55,0,0,1-3.9.67A10.66,10.66,0,0,1,90.48,35a6.23,6.23,0,0,1-2.58-4.83H93q.73,1.91,3.64,1.91a3.18,3.18,0,0,0,2.37-1,4.17,4.17,0,0,0,.94-3V25.71a5.87,5.87,0,0,1-5,2.67A7.1,7.1,0,0,1,89.51,26Zm9.32-3.16A4.13,4.13,0,0,0,100,19.7a4.07,4.07,0,0,0-1.12-3.08,3.61,3.61,0,0,0-5.16,0,4.12,4.12,0,0,0-1.12,3.1,4.07,4.07,0,0,0,1.12,3.08,3.61,3.61,0,0,0,5.16,0Z" transform="translate(-1.48 -4.1)"/><path d="M119.52,11.23h5.19V28.17h-5.19V25.68a5.54,5.54,0,0,1-5.13,2.67,6.15,6.15,0,0,1-4.72-1.94,7.45,7.45,0,0,1-1.81-5.28v-9.9H113v9.2a3.5,3.5,0,0,0,.87,2.53,3.62,3.62,0,0,0,4.77,0,3.5,3.5,0,0,0,.86-2.53Z" transform="translate(-1.48 -4.1)"/><path d="M132.18,9.32A3,3,0,0,1,127,7.15a3,3,0,1,1,6.07,0A3,3,0,0,1,132.18,9.32Zm-4.74,18.86V11.23h5.19V28.17Z" transform="translate(-1.48 -4.1)"/><path d="M137,26a8.8,8.8,0,0,1-2.25-6.22A8.86,8.86,0,0,1,137,13.49,7.16,7.16,0,0,1,142.46,11a5.75,5.75,0,0,1,5,2.4V5.71h5.19V28.17h-5.19V25.71a5.87,5.87,0,0,1-5,2.67A7.1,7.1,0,0,1,137,26Zm9.32-3.16a4.13,4.13,0,0,0,1.12-3.1,4.07,4.07,0,0,0-1.12-3.08,3.61,3.61,0,0,0-5.16,0,4.13,4.13,0,0,0-1.12,3.1,4.07,4.07,0,0,0,1.12,3.08,3.61,3.61,0,0,0,5.16,0Z" transform="translate(-1.48 -4.1)"/><path d="M163.15,28.39A8.19,8.19,0,0,1,157.08,26a8.58,8.58,0,0,1-2.37-6.33,8.46,8.46,0,0,1,2.35-6.29A8.26,8.26,0,0,1,163.15,11a8.7,8.7,0,0,1,6.19,2.31,8.36,8.36,0,0,1,2.46,6.41,10.39,10.39,0,0,1-.12,1.64H160A3,3,0,0,0,162.86,24a4.13,4.13,0,0,0,1.47-.2,2.6,2.6,0,0,0,.71-.39,5.23,5.23,0,0,0,.59-.65h5.62a7.45,7.45,0,0,1-2.92,4.11A8.69,8.69,0,0,1,163.15,28.39Zm2.22-12.16a3.3,3.3,0,0,0-2.16-.75,3.07,3.07,0,0,0-2.1.75,3.24,3.24,0,0,0-1.06,1.93h6.35A2.76,2.76,0,0,0,165.37,16.23Z" transform="translate(-1.48 -4.1)"/><path class="cls-1" d="M184.15,28.37l6.19-8.66L184.15,11h5.36l6.19,8.66-6.19,8.66Z" transform="translate(-1.48 -4.1)"/><polygon class="cls-1" points="176.07 2.76 170.56 28.79 175.57 28.79 181.08 2.76 176.07 2.76"/><path class="cls-2" d="M43.47,13.45a5.75,5.75,0,0,0-5-2.4A7.16,7.16,0,0,0,33,13.49a8.86,8.86,0,0,0-2.25,6.24A8.8,8.8,0,0,0,33,26a7.1,7.1,0,0,0,5.4,2.43,5.87,5.87,0,0,0,5-2.67v2.46h5.19V11.23H43.47ZM42.35,22.8a3.61,3.61,0,0,1-5.16,0,4.07,4.07,0,0,1-1.12-3.08,4.12,4.12,0,0,1,1.12-3.1,3.61,3.61,0,0,1,5.16,0,4.07,4.07,0,0,1,1.12,3.08A4.13,4.13,0,0,1,42.35,22.8Z" transform="translate(-1.48 -4.1)"/><path class="cls-2" d="M63.45,13.45a5.75,5.75,0,0,0-5-2.4A7.16,7.16,0,0,0,53,13.49a8.86,8.86,0,0,0-2.25,6.24A8.8,8.8,0,0,0,53,26a7.1,7.1,0,0,0,5.4,2.43,5.87,5.87,0,0,0,5-2.67v2.37a4.17,4.17,0,0,1-.94,3,3.18,3.18,0,0,1-2.37,1q-2.91,0-3.64-1.91H51.4A6.23,6.23,0,0,0,54,35a10.66,10.66,0,0,0,6.16,1.58,10.55,10.55,0,0,0,3.9-.67A6.28,6.28,0,0,0,66.7,34a9,9,0,0,0,1.94-5.92V11.23H63.45ZM62.33,22.8a3.61,3.61,0,0,1-5.16,0A4.07,4.07,0,0,1,56,19.73a4.12,4.12,0,0,1,1.12-3.1,3.61,3.61,0,0,1,5.16,0,4.07,4.07,0,0,1,1.12,3.08A4.13,4.13,0,0,1,62.33,22.8Z" transform="translate(-1.48 -4.1)"/><path class="cls-2" d="M22.25,11.06a6.14,6.14,0,0,0-3.2.85,6.92,6.92,0,0,0-2.33,2.28,5.58,5.58,0,0,0-2.19-2.32,6.29,6.29,0,0,0-3.2-.81,5.29,5.29,0,0,0-4.9,2.55V11.23h-5V27.4h5V18.62a3.34,3.34,0,0,1,.83-2.42,3,3,0,0,1,2.27-.85,3,3,0,0,1,2.27.85,3.34,3.34,0,0,1,.83,2.42V27.4h4.93V18.62a3.34,3.34,0,0,1,.83-2.42,3,3,0,0,1,2.27-.85,3,3,0,0,1,2.27.85,3.34,3.34,0,0,1,.83,2.42V27.4h4.93V18a7.05,7.05,0,0,0-1.74-5.07A6.18,6.18,0,0,0,22.25,11.06Z" transform="translate(-1.48 -4.1)"/><path class="cls-2" d="M85.38,22.71H81.67a5.23,5.23,0,0,1-.59.65,2.59,2.59,0,0,1-.71.39,4.13,4.13,0,0,1-1.47.2,3,3,0,0,1-2.84-2.55h9a10,10,0,0,1-.15-1.74,9.53,9.53,0,0,1,1.48-5.15,7.32,7.32,0,0,0-1-1.16A8.7,8.7,0,0,0,79.18,11a8.26,8.26,0,0,0-6.09,2.34,8.46,8.46,0,0,0-2.35,6.29A8.59,8.59,0,0,0,73.11,26a8.19,8.19,0,0,0,6.07,2.38,8.69,8.69,0,0,0,5.19-1.56,7.59,7.59,0,0,0,2-2.06A9.16,9.16,0,0,1,85.38,22.71Zm-8.24-6.48a3.06,3.06,0,0,1,2.09-.75,3.3,3.3,0,0,1,2.16.75,2.76,2.76,0,0,1,1,1.93H76.08A3.23,3.23,0,0,1,77.15,16.23Z" transform="translate(-1.48 -4.1)"/><path d="M194,6.06h-1V5.7h2.4v.36h-1V8.94H194Z" transform="translate(-1.48 -4.1)"/><path d="M198.51,7.52c0-.45-.05-1-.05-1.4h0c-.12.38-.25.79-.41,1.23l-.57,1.57h-.32l-.53-1.54c-.15-.46-.28-.88-.37-1.26h0c0,.4,0,.95-.06,1.43l-.09,1.39h-.4l.23-3.24h.53L197,7.27c.13.4.24.76.33,1.1h0c.09-.33.2-.69.35-1.1l.58-1.57h.53l.2,3.24h-.41Z" transform="translate(-1.48 -4.1)"/></svg>