<?xml version="1.0" encoding="utf-8"?>
<!-- Generator: Adobe Illustrator 21.1.0, SVG Export Plug-In . SVG Version: 6.00 Build 0)  -->
<svg version="1.1" id="Layer_1" xmlns="http://www.w3.org/2000/svg" xmlns:xlink="http://www.w3.org/1999/xlink" x="0px" y="0px"
	 viewBox="0 0 400 400" style="enable-background:new 0 0 400 400;" xml:space="preserve">
<style type="text/css">
	.st0{fill:#00118C;}
	.st1{fill:#FF4800;}
</style>
<path d="M160.1,226.1c-7.6-8.3-11.5-18.9-11.5-31.8c0-12.9,3.8-23.5,11.5-31.8c7.6-8.3,17-12.5,28-12.5c11,0,19.4,4.1,25.3,12.2V151
	h26.5v86c0,12.1-3.3,22.2-9.9,30.2c-3.3,4.1-7.8,7.3-13.6,9.6c-5.7,2.3-12.4,3.4-19.9,3.4c-13.2,0-23.7-2.7-31.5-8.1
	c-7.7-5.4-12.1-13.6-13.2-24.6h26c2.5,6.5,8.7,9.8,18.6,9.8c4.9,0,8.9-1.6,12.1-4.9c3.2-3.2,4.8-8.4,4.8-15.4v-12.1
	c-6.4,9.1-15,13.6-25.7,13.6C176.9,238.5,167.7,234.4,160.1,226.1z M207.7,210c3.8-3.7,5.7-9,5.7-15.8c0-6.8-1.9-12.1-5.7-15.7
	c-3.8-3.7-8.2-5.5-13.2-5.5c-5,0-9.3,1.9-13.2,5.6c-3.8,3.7-5.7,9-5.7,15.8c0,6.8,1.9,12.1,5.7,15.7c3.8,3.7,8.2,5.5,13.2,5.5
	C199.5,215.6,203.8,213.7,207.7,210z"/>
<path class="st0" d="M137,194.3c0-7.9,1.8-15.4,5-21.8c-1.4-5.1-3.8-9.6-7.1-13.1c-5.9-6.2-13.9-9.3-24-9.3c-6,0-11.5,1.5-16.3,4.4
	c-4.9,2.9-8.8,6.8-11.9,11.6c-2.7-5.1-6.4-9.1-11.2-11.8c-4.8-2.8-10.2-4.1-16.3-4.1c-11.4,0-19.8,4.3-25,13V151H4.9v82.5h25.3
	v-44.8c0-5.3,1.4-9.4,4.2-12.3c2.8-2.9,6.7-4.4,11.6-4.4c4.9,0,8.8,1.5,11.6,4.4c2.8,2.9,4.2,7,4.2,12.3v44.8h25.1v-44.8
	c0-5.3,1.4-9.4,4.2-12.3c2.8-2.9,6.7-4.4,11.6-4.4c4.9,0,8.8,1.5,11.6,4.4c2.8,2.9,4.2,7,4.2,12.3v44.8h25.1v-14.1
	C139.5,212.2,137,203.6,137,194.3z"/>
<path class="st1" d="M320.4,238.1l31.6-44.2l-31.6-44.2h27.4l31.6,44.2l-31.6,44.2H320.4z"/>
<polygon class="st1" points="286.7,128.3 258.6,261.1 284.1,261.1 312.3,128.3 "/>
<g>
	<path d="M370.7,124.2h-5v-1.8h12.2v1.8h-5.1v14.7h-2.2V124.2z"/>
	<path d="M393.7,131.7c-0.1-2.3-0.3-5.1-0.3-7.1h0c-0.6,1.9-1.3,4-2.1,6.3l-2.9,8h-1.6L384,131c-0.8-2.3-1.4-4.5-1.9-6.4h0
		c0,2.1-0.2,4.8-0.3,7.3l-0.4,7.1h-2l1.2-16.5h2.7l2.8,8c0.7,2,1.2,3.9,1.7,5.6h0c0.4-1.7,1-3.5,1.8-5.6l2.9-8h2.7l1,16.5h-2.1
		L393.7,131.7z"/>
</g>
</svg>
