<?xml version="1.0" encoding="utf-8"?>
<!-- Generator: Adobe Illustrator 21.1.0, SVG Export Plug-In . SVG Version: 6.00 Build 0)  -->
<svg version="1.1" id="Layer_1" xmlns="http://www.w3.org/2000/svg" xmlns:xlink="http://www.w3.org/1999/xlink" x="0px" y="0px"
	 viewBox="0 0 400 400" style="enable-background:new 0 0 400 400;" xml:space="preserve">
<style type="text/css">
	.st0{fill:#FFFFFF;}
	.st1{fill:#FF4800;}
</style>
<path class="st0" d="M166.6,223.3c-8-8.6-12-19.7-12-33.2s4-24.6,12-33.3c8-8.7,17.7-13,29.2-13s20.3,4.3,26.5,12.8v-11.8H250v89.8
	c0,12.6-3.5,23.1-10.4,31.6c-3.5,4.3-8.2,7.7-14.2,10c-6,2.4-12.9,3.6-20.8,3.6c-13.8,0-24.8-2.8-32.9-8.4
	c-8.1-5.6-12.7-14.2-13.8-25.7h27.2c2.6,6.8,9.1,10.2,19.4,10.2c5.1,0,9.3-1.7,12.6-5.1c3.3-3.4,5-8.8,5-16.1V222
	c-6.7,9.5-15.6,14.2-26.9,14.2C184.2,236.3,174.6,231.9,166.6,223.3z M216.3,206.5c4-3.9,6-9.4,6-16.5c0-7.1-2-12.6-6-16.4
	c-4-3.8-8.6-5.7-13.8-5.7c-5.2,0-9.8,1.9-13.8,5.8c-4,3.9-6,9.4-6,16.5c0,7.1,2,12.6,6,16.4c4,3.8,8.6,5.8,13.8,5.8
	C207.7,212.3,212.3,210.3,216.3,206.5z"/>
<path class="st0" d="M142.5,190c0-8.3,1.9-16,5.2-22.8c-1.5-5.4-3.9-10-7.5-13.7c-6.2-6.5-14.5-9.7-25-9.7c-6.3,0-12,1.5-17.1,4.6
	c-5.1,3-9.2,7.1-12.4,12.1c-2.8-5.4-6.7-9.5-11.7-12.4c-5-2.9-10.7-4.3-17.1-4.3c-11.9,0-20.6,4.5-26.1,13.6v-12.7H4.5v86.2h26.4
	v-46.8c0-5.6,1.5-9.9,4.4-12.9c2.9-3,7-4.6,12.1-4.6c5.1,0,9.2,1.5,12.1,4.6c2.9,3,4.4,7.3,4.4,12.9v46.8h26.3v-46.8
	c0-5.6,1.5-9.9,4.4-12.9c2.9-3,7-4.6,12.1-4.6c5.1,0,9.2,1.5,12.1,4.6c2.9,3,4.4,7.3,4.4,12.9v46.8h26.3v-14.7
	C145.1,208.8,142.5,199.8,142.5,190z"/>
<path class="st1" d="M334.1,235.8l33-46.2l-33-46.2h28.6l33,46.2l-33,46.2H334.1z"/>
<polygon class="st1" points="298.9,121.1 269.5,259.8 296.2,259.8 325.6,121.1 "/>
</svg>
